#!OML:ASF I:\Actors\actors\Patient Classification 2\Patient 1\Session 1\actor1.ASF
:FULLY-SPECIFIED
:DEGREES
339
root -0.974554 18.1521 5.85236 -1.25056 1.51367 -5.07842
lowerback 3.91716 1.43629 3.30243
upperback 0.709419 2.07941 1.73863
thorax -1.4137 1.02673 -0.169905
lowerneck -8.54864 3.72423 1.69999
upperneck 32.8638 9.24295 -11.9925
head 13.1348 2.91317 -3.72133
rclavicle -1.17873e-014 -9.24349e-015
rhumerus -24.1031 27.6535 -94.835
rradius 112.348
rwrist -18.4808
rhand -33.3941 -36.3093
rfingers 7.12502
rthumb -6.5947 -426.187
lclavicle -1.17873e-014 -9.24349e-015
lhumerus -20.9452 -17.0023 99.9854
lradius 97.9435
lwrist 78.9976
lhand -14.6859 -12.4972
lfingers 7.12502
lthumb 11.4677 17.1691
rfemur 0 0 0
rtibia 0
rfoot 0 0
rtoes 0
lfemur 19.1764 -6.82327 -11.9855
ltibia -19.9202
lfoot -1.76316 19.2293
ltoes -13.809
340
root -0.975485 18.1523 5.85271 -1.25265 1.5051 -5.07098
lowerback 3.9174 1.44733 3.29028
upperback 0.730004 2.09302 1.74457
thorax -1.39298 1.03403 -0.157343
lowerneck -8.52616 3.71621 1.68839
upperneck 32.8432 9.23912 -12.0193
head 13.1219 2.90874 -3.73004
rclavicle -3.71867e-015 4.47266e-015
rhumerus -23.7658 27.8518 -94.8559
rradius 112.082
rwrist -18.45
rhand -33.5795 -36.351
rfingers 7.12502
rthumb -6.77369 -426.223
lclavicle -3.71867e-015 4.47266e-015
lhumerus -20.9795 -17.1971 100.051
lradius 97.973
lwrist 79.0984
lhand -15.1343 -12.4659
lfingers 7.12502
lthumb 11.0352 17.2241
rfemur 0 0 0
rtibia 0
rfoot 0 0
rtoes 0
lfemur 19.1763 -6.80832 -11.991
ltibia -19.9145
lfoot -1.75145 19.2258
ltoes -14.108
341
root -0.975449 18.1529 5.85236 -1.2491 1.48396 -5.02719
lowerback 3.90695 1.44557 3.25441
upperback 0.758914 2.08767 1.743
thorax -1.35879 1.03219 -0.137909
lowerneck -8.53356 3.72818 1.70225
upperneck 32.8512 9.27728 -12.0841
head 13.1363 2.9191 -3.75368
rclavicle -1.33892e-014 -2.27608e-014
rhumerus -23.282 28.1926 -94.8299
rradius 111.799
rwrist -18.4134
rhand -33.8374 -36.5761
rfingers 7.12502
rthumb -7.02266 -426.44
lclavicle -1.33892e-014 -2.27608e-014
lhumerus -20.9707 -17.3268 100.092
lradius 97.9973
lwrist 79.3781
lhand -15.2847 -12.2623
lfingers 7.12502
lthumb 10.8902 17.4353
rfemur 0 0 0
rtibia 0
rfoot 0 0
rtoes 0
lfemur 19.1683 -6.80467 -12.0428
ltibia -19.8945
lfoot -1.76074 19.2605
ltoes -14.3296
342
root -0.974668 18.1533 5.85092 -1.23288 1.44503 -5.01247
lowerback 3.92019 1.44336 3.28511
upperback 0.766332 2.08602 1.7247
thorax -1.35682 1.03129 -0.17396
lowerneck -8.53972 3.73143 1.71247
upperneck 32.8572 9.30374 -12.1519
head 13.1485 2.92342 -3.77951
rclavicle -7.13994e-016 8.80865e-015
rhumerus -22.6954 28.5668 -94.8357
rradius 111.532
rwrist -18.4355
rhand -33.7818 -36.2522
rfingers 7.12502
rthumb -6.9689 -426.118
lclavicle -7.13994e-016 8.80865e-015
lhumerus -20.9952 -17.4712 100.093
lradius 98.0364
lwrist 79.692
lhand -15.423 -12.0343
lfingers 7.12502
lthumb 10.7568 17.6703
rfemur 0 0 0
rtibia 0
rfoot 0 0
rtoes 0
lfemur 19.1356 -6.79452 -12.0624
ltibia -19.8498
lfoot -1.80309 19.2856
ltoes -14.2062
343
root -0.973872 18.154 5.8489 -1.2226 1.41244 -4.98711
lowerback 3.96332 1.44622 3.3188
upperback 0.764654 2.09284 1.6969
thorax -1.38024 1.03416 -0.222846
lowerneck -8.53458 3.72238 1.68962
upperneck 32.8527 9.30291 -12.1775
head 13.1463 2.91743 -3.78583
rclavicle 3.15505e-014 -6.85186e-015
rhumerus -22.0534 28.8998 -94.8507
rradius 111.3
rwrist -18.4775
rhand -33.5253 -35.1186
rfingers 7.12502
rthumb -6.72133 -424.992
lclavicle 3.15505e-014 -6.85186e-015
lhumerus -21.0546 -17.6607 100.109
lradius 98.0404
lwrist 79.8955
lhand -15.4675 -12.02
lfingers 7.12502
lthumb 10.7139 17.6868
rfemur 0 0 0
rtibia 0
rfoot 0 0
rtoes 0
lfemur 19.0963 -6.78004 -12.0928
ltibia -19.7943
lfoot -1.82269 19.286
ltoes -13.9108
344
root -0.973302 18.1546 5.84684 -1.22781 1.37742 -4.9313
lowerback 4.01155 1.45522 3.3006
upperback 0.781357 2.10548 1.67925
thorax -1.3897 1.04051 -0.232537
lowerneck -8.53724 3.712 1.70229
upperneck 32.8632 9.30679 -12.2379
head 13.1568 2.91314 -3.81259
rclavicle -1.4131e-014 -1.06474e-014
rhumerus -21.3604 29.2781 -94.8395
rradius 111.051
rwrist -18.2533
rhand -33.4793 -34.455
rfingers 7.12502
rthumb -6.67695 -424.33
lclavicle -1.4131e-014 -1.06474e-014
lhumerus -21.0674 -17.8298 100.16
lradius 97.9997
lwrist 80.1278
lhand -15.2168 -12.0425
lfingers 7.12502
lthumb 10.9556 17.6517
rfemur 0 0 0
rtibia 0
rfoot 0 0
rtoes 0
lfemur 19.0813 -6.7765 -12.1594
ltibia -19.7488
lfoot -1.85866 19.3086
ltoes -13.6774
345
root -0.973688 18.1546 5.84452 -1.24205 1.31879 -4.90706
lowerback 4.06483 1.46856 3.2849
upperback 0.801269 2.12443 1.68001
thorax -1.39912 1.05005 -0.225145
lowerneck -8.53707 3.69537 1.72267
upperneck 32.928 9.30442 -12.2888
head 13.1895 2.9062 -3.84048
rclavicle -2.75445e-014 -8.33032e-015
rhumerus -20.6024 29.7403 -94.7599
rradius 110.776
rwrist -17.9951
rhand -33.6278 -34.3637
rfingers 7.12502
rthumb -6.82023 -424.234
lclavicle -2.75445e-014 -8.33032e-015
lhumerus -21.0799 -17.9514 100.222
lradius 97.991
lwrist 80.5461
lhand -14.9442 -11.9009
lfingers 7.12502
lthumb 11.2186 17.7792
rfemur 0 0 0
rtibia 0
rfoot 0 0
rtoes 0
lfemur 19.0888 -6.77886 -12.1937
ltibia -19.7118
lfoot -1.88206 19.3516
ltoes -13.8076
346
root -0.974674 18.155 5.84247 -1.24571 1.2532 -4.94278
lowerback 4.10176 1.48711 3.31807
upperback 0.800953 2.15263 1.69863
thorax -1.41883 1.06373 -0.227043
lowerneck -8.55217 3.66199 1.62959
upperneck 33.0931 9.26101 -12.1737
head 13.2487 2.88207 -3.79084
rclavicle 3.38536e-015 1.54898e-015
rhumerus -19.8141 30.2227 -94.588
rradius 110.517
rwrist -17.9757
rhand -33.7657 -34.1765
rfingers 7.12502
rthumb -6.95338 -424.042
lclavicle 3.38536e-015 1.54898e-015
lhumerus -21.1468 -18.1046 100.328
lradius 97.9952
lwrist 80.8876
lhand -15.1859 -11.6551
lfingers 7.12502
lthumb 10.9855 18.0375
rfemur 0 0 0
rtibia 0
rfoot 0 0
rtoes 0
lfemur 19.0921 -6.79258 -12.1576
ltibia -19.6898
lfoot -1.90007 19.4165
ltoes -13.8418
